PathFileType	4	(X/Y/Z)	C:\Users\Basilio\Documents\Thesis Gigler\squatting_fais\c3dfiles\038\SLS_back_pre1\markers_experimental.trc
DataRate	CameraRate	NumFrames	NumMarkers	Units	OrigDataRate	OrigDataStartFrame	OrigNumFrames
200.000000	200.000000	4	63	mm	200.000000	0	1448
Frame#	Time	FHD			LBHD			RBHD			C7			T10			CLAV			LSHO			LUUPA			LMUPA			LDUPA			LLEP			LMEP			LUL			LRFIN			RSHO			RUPA1			RMUPA			RDUPA			RLEP			RMEP			RRAD			RUL			RUFIN			LASI			RASI			USACR			LSACR			RSACR			LTHI1			LTHI2			LTHI3			LTHI4			LLFC			LMFC			LTIB1			LTIB2			LTIB3			LTIB4			LLMAL			LMMAL			LHEE			LMT1			LMT2			LMT5			RTHI			RTHI2			RTHI3			RTHI4			RLFC			RMFC			RTIB1			RTIB2			RTIB3			RTIB4			RLMAL			RMMAL			RHEE			RMT1			RMT2			RMT5			LRAD			*61			*62			
		X1	Y1	Z1	X2	Y2	Z2	X3	Y3	Z3	X4	Y4	Z4	X5	Y5	Z5	X6	Y6	Z6	X7	Y7	Z7	X8	Y8	Z8	X9	Y9	Z9	X10	Y10	Z10	X11	Y11	Z11	X12	Y12	Z12	X13	Y13	Z13	X14	Y14	Z14	X15	Y15	Z15	X16	Y16	Z16	X17	Y17	Z17	X18	Y18	Z18	X19	Y19	Z19	X20	Y20	Z20	X21	Y21	Z21	X22	Y22	Z22	X23	Y23	Z23	X24	Y24	Z24	X25	Y25	Z25	X26	Y26	Z26	X27	Y27	Z27	X28	Y28	Z28	X29	Y29	Z29	X30	Y30	Z30	X31	Y31	Z31	X32	Y32	Z32	X33	Y33	Z33	X34	Y34	Z34	X35	Y35	Z35	X36	Y36	Z36	X37	Y37	Z37	X38	Y38	Z38	X39	Y39	Z39	X40	Y40	Z40	X41	Y41	Z41	X42	Y42	Z42	X43	Y43	Z43	X44	Y44	Z44	X45	Y45	Z45	X46	Y46	Z46	X47	Y47	Z47	X48	Y48	Z48	X49	Y49	Z49	X50	Y50	Z50	X51	Y51	Z51	X52	Y52	Z52	X53	Y53	Z53	X54	Y54	Z54	X55	Y55	Z55	X56	Y56	Z56	X57	Y57	Z57	X58	Y58	Z58	X59	Y59	Z59	X60	Y60	Z60	X61	Y61	Z61	X62	Y62	Z62	X63	Y63	Z63	

1	0	-244.7879486083985	1770.080078125	-1068.773681640625	-395.8928833007814	1706.173461914063	-1130.384399414063	-386.5417785644532	1691.956298828125	-986.2056884765627	-427.0251770019532	1527.459716796875	-1054.705322265625	-410.2761230468751	1247.055541992188	-1027.980346679688	-284.3832397460938	1508.572509765625	-1069.19140625	-355.1719665527344	1539.343505859375	-1209.912475585938	-202.0578918457032	1471.5908203125	-1349.751342773438	-172.9813385009766	1507.511962890625	-1328.357177734375	-134.6650695800782	1480.373046875	-1364.990600585938	-72.61550140380861	1485.206298828125	-1372.960205078125	-58.95395660400392	1411.94091796875	-1347.76708984375	223.0334777832032	1506.311889648438	-1335.976806640625	284.8622131347657	1525.247802734375	-1245.977783203125	-324.3384399414063	1540.956298828125	-924.0173339843752	-167.4385681152344	1510.157836914063	-804.828552246094	-131.7978973388672	1518.714599609375	-836.657165527344	-100.2522583007813	1504.668823242188	-786.908142089844	-26.96611213684083	1501.328369140625	-775.9517822265627	-21.94033432006836	1422.85400390625	-791.6197509765627	249.4856872558594	1488.163452148438	-859.9500732421877	261.3839111328126	1509.327758789063	-793.4918212890627	326.5009155273438	1524.664794921875	-872.2580566406252	-229.1172637939454	1057.256469726563	-1125.3662109375	-253.0714874267579	1081.234252929688	-876.5266113281252	-411.0474548339845	1114.103759765625	-1015.780334472656	-421.632049560547	1082.532348632813	-1042.93310546875	-426.0613098144532	1084.575561523438	-986.460632324219	-256.1026000976563	735.3930664062501	-1156.010009765625	-225.6081542968751	657.1549682617189	-1140.908081054688	-181.4172973632813	664.4916992187501	-1116.1015625	-254.3432617187501	609.0612792968751	-1121.221557617188	-251.7760314941407	547.2711181640626	-1107.863403320313	-250.7635192871094	548.3084106445314	-988.7918701171877	-244.0721893310547	361.5050048828126	-1021.165893554688	-288.8761291503907	320.0421447753907	-1085.705932617188	-254.6656951904297	313.9546813964844	-1053.430053710938	-280.8211059570313	239.6133270263672	-1020.553039550781	-381.5128784179688	119.4238662719727	-1035.447265625	-343.3435363769532	133.4463500976563	-964.1406250000002	-433.5526428222657	100.4326171875	-980.5372314453127	-234.2585449218751	46.71541595458985	-974.3438110351565	-225.8959960937501	45.75165557861329	-1024.26904296875	-271.2081298828126	35.79975128173829	-1071.902954101563	-277.6311950683594	807.0147094726565	-803.2749633789065	-237.165756225586	754.3773193359376	-792.5415649414065	-204.2143554687501	757.3903198242189	-795.8734130859377	-258.7929992675782	671.3370971679689	-800.0496826171877	-250.078598022461	564.6749877929689	-808.8882446289065	-242.3003845214844	553.5692138671876	-922.117858886719	-355.1181945800782	428.7228393554689	-837.4678344726565	-467.2499389648439	453.6084289550782	-820.5921630859377	-438.7940063476564	415.5234680175782	-822.4592285156252	-471.8764038085939	378.2134094238282	-855.0662841796877	-605.9925537109376	373.2473754882813	-845.687683105469	-577.4255981445314	340.5421142578126	-917.9938964843752	-641.8486328125001	413.8586425781251	-922.596374511719	-625.4013671875001	199.1607971191407	-894.8010864257815	-634.3108520507814	202.2351226806641	-848.6900634765627	-670.9152832031251	244.4403228759766	-816.3621215820315	nan	nan	nan	nan	nan	nan	nan	nan	nan	
2	0.005	-244.8157653808594	1770.069946289063	-1068.73291015625	-395.9291992187501	1706.156005859375	-1130.43994140625	-386.5417785644532	1691.956298828125	-986.2056884765627	-427.0609130859376	1527.501220703125	-1054.716430664063	-410.4145812988282	1247.067749023438	-1028.002563476563	-284.3168029785157	1508.5615234375	-1069.235229492188	-355.2185058593751	1539.360717773438	-1209.915283203125	-202.1284484863282	1471.56494140625	-1349.748901367188	-173.0358123779297	1507.535034179688	-1328.366333007813	-134.673828125	1480.389770507813	-1364.989013671875	-72.67007446289064	1485.220581054688	-1372.954223632813	-59.00830078125001	1411.95751953125	-1347.735229492188	223.0116424560547	1506.329711914063	-1336.056274414063	284.8099365234376	1525.317749023438	-1246.048461914063	-324.3699645996094	1540.976440429688	-924.0718994140627	-167.4528503417969	1510.166015625	-804.874450683594	-131.7995910644532	1518.751586914063	-836.7099609375002	-100.2412033081055	1504.69580078125	-786.9788818359377	-27.02482795715333	1501.358764648438	-775.9837646484377	-21.91747283935547	1422.881958007813	-791.654479980469	249.4377136230469	1488.290771484375	-859.9893188476565	261.3921508789063	1509.413452148438	-793.6019287109377	326.5265197753907	1524.743041992188	-872.3687133789065	-229.1966094970704	1057.2578125	-1125.39013671875	-253.1479492187501	1081.203735351563	-876.615173339844	-411.157928466797	1114.115600585938	-1015.8955078125	-421.7755737304689	1082.527954101563	-1043.04638671875	-426.153778076172	1084.568115234375	-986.5502929687502	-256.1684570312501	735.8495483398439	-1155.97900390625	-225.682357788086	657.1512451171876	-1140.990600585938	-181.4908752441407	664.4896850585939	-1116.139892578125	-254.3483276367188	609.0456542968751	-1121.284545898438	-251.8417205810547	547.2512207031251	-1107.876831054688	-250.8707580566407	548.3446655273439	-988.7681274414065	-244.1287384033204	361.5398559570313	-1021.169738769531	-288.9429626464844	320.0509948730469	-1085.781982421875	-254.6656951904297	313.9546813964844	-1053.430053710938	-280.8360595703126	239.6073150634766	-1020.60595703125	-381.4821777343751	119.4028244018555	-1035.478393554688	-343.3460388183594	133.422836303711	-964.1358642578127	-433.5526428222657	100.4326171875	-980.5372314453127	-234.2405090332032	46.64323425292969	-974.4131469726565	-225.8924713134766	45.72028732299805	-1024.302856445313	-270.6299133300782	35.3463363647461	-1071.883422851563	-277.6795959472657	807.0460205078127	-803.3549804687502	-236.430648803711	755.2236938476564	-791.8333129882815	-203.8775024414063	758.1809082031251	-795.6766357421877	-258.7938842773438	671.3511352539064	-800.1065063476565	-250.0707550048829	564.6890258789064	-808.8878173828127	-242.3273468017579	553.5750122070314	-922.131774902344	-355.1148681640626	428.7103576660157	-837.4649047851565	-467.2387695312501	453.6048583984376	-820.6093750000002	-438.7940063476564	415.5234680175782	-822.4592285156252	-471.8270568847657	378.2386474609376	-855.0959472656252	-605.9730834960939	373.2511901855469	-845.6990966796877	-577.4488525390626	340.5114135742188	-917.9978637695315	-641.7180175781251	413.6052246093751	-922.2451171875002	-625.4089965820314	199.0443115234376	-894.8076782226565	-634.2261352539064	202.1312103271485	-848.7211914062502	-670.8528442382814	244.4281921386719	-816.3408203125002	nan	nan	nan	nan	nan	nan	nan	nan	nan	
3	0.01	-245.0657348632813	1770.464233398438	-1068.626831054688	-395.8883056640626	1706.166137695313	-1130.46142578125	-386.5209960937501	1691.953125	-986.2426757812502	-427.0502319335939	1527.495849609375	-1054.742919921875	-410.4311523437501	1247.06494140625	-1028.09130859375	-284.3989562988282	1508.57275390625	-1069.300170898438	-355.2895202636719	1539.399047851563	-1209.942260742188	-202.1927947998047	1471.570434570313	-1349.736328125	-173.1007690429688	1507.546142578125	-1328.412475585938	-134.7771453857422	1480.37890625	-1365.025268554688	-72.73040771484376	1485.238403320313	-1372.969970703125	-59.00799942016603	1411.979858398438	-1347.740112304688	222.9394531250001	1506.356689453125	-1336.088134765625	284.8202209472657	1525.407348632813	-1246.137817382813	-324.3730468750001	1540.968505859375	-924.1094360351565	-167.4477996826172	1510.181030273438	-804.9314575195315	-131.8032531738282	1518.750366210938	-836.752136230469	-100.2721862792969	1504.704345703125	-786.962097167969	-27.0521640777588	1501.387817382813	-776.0103759765627	-21.91941452026368	1422.877319335938	-791.685729980469	249.4890747070313	1488.362915039063	-860.099304199219	261.3456420898438	1509.491577148438	-793.6721801757815	326.4400329589844	1524.831176757813	-872.451354980469	-229.2525787353516	1057.223754882813	-1125.45263671875	-253.2528533935547	1081.192138671875	-876.6931762695315	-411.2533569335939	1114.129516601563	-1015.94091796875	-421.7926025390626	1082.516235351563	-1043.098388671875	-426.1669921875001	1084.557983398438	-986.6403808593752	-256.2191467285157	735.8287963867189	-1156.0546875	-225.6898193359376	657.1351318359376	-1141.007080078125	-181.502197265625	664.5251464843751	-1116.16259765625	-254.4363403320313	609.0554199218751	-1121.3291015625	-251.8790740966797	547.2301025390626	-1107.918212890625	-250.9205322265626	548.3344116210939	-988.8089599609377	-244.1104888916016	361.5413208007813	-1021.203552246094	-288.5780334472657	320.6560668945313	-1085.65234375	-254.6919403076172	313.9563293457032	-1053.418823242188	-280.8525695800782	239.6271667480469	-1020.615966796875	-380.3360900878907	119.4300231933594	-1035.119506835938	-343.3702697753907	133.4360656738282	-964.1373291015627	-433.5526428222657	100.4326171875	-980.5372314453127	-234.2366943359376	46.68811798095704	-974.380798339844	-225.8991241455079	45.7358741760254	-1024.303100585938	-270.6542663574219	35.34820556640626	-1071.903076171875	-277.7305603027344	807.0466918945315	-803.4049072265627	-236.5962219238282	755.0263671875001	-791.8489379882815	-204.3142089843751	757.3970947265626	-795.9772949218752	-258.8096923828126	671.3708496093751	-800.1124267578127	-250.0864562988282	564.7058105468751	-808.9216918945315	-242.3142242431641	553.6049804687501	-922.1401977539065	-355.1110534667969	428.7413940429689	-837.4636840820315	-467.243865966797	453.5936279296876	-820.6115722656252	-438.7628784179689	415.5162658691407	-822.478942871094	-471.8756713867189	378.2121276855469	-855.0668945312502	-605.9586181640626	373.2520141601563	-845.700378417969	-577.3895874023439	340.4827270507813	-917.981384277344	-641.7416381835939	413.5621337890626	-922.2739257812502	-625.2637329101564	199.0914306640626	-894.798034667969	-634.2328491210939	202.2127075195313	-848.6233520507815	-670.7861328125001	244.3920135498047	-816.3168945312502	nan	nan	nan	nan	nan	nan	nan	nan	nan	
4	0.015	-244.7971191406251	1770.1015625	-1068.802856445313	-395.8883056640626	1706.166137695313	-1130.46142578125	-386.5520935058595	1691.953002929688	-986.261169433594	-427.0997924804689	1527.52392578125	-1054.755493164063	-410.519989013672	1247.136352539063	-1028.096923828125	-284.4274597167969	1508.524780273438	-1069.325317382813	-355.3223266601563	1539.433227539063	-1209.977905273438	-202.2105560302735	1471.553588867188	-1349.7568359375	-173.18017578125	1507.561889648438	-1328.4345703125	-134.8191680908203	1480.401611328125	-1365.063110351563	-72.7607879638672	1485.249267578125	-1372.98974609375	-59.0680618286133	1411.990966796875	-1347.702514648438	222.9774322509766	1506.410278320313	-1336.148315429688	284.7843627929688	1525.494384765625	-1246.194702148438	-324.3937988281251	1540.96728515625	-924.1401977539065	-167.4926452636719	1510.22705078125	-804.9713134765627	-131.8145446777344	1518.757568359375	-836.7883911132815	-100.2771453857422	1504.763916015625	-787.0191650390627	-27.03621482849122	1501.407836914063	-776.045349121094	-21.94432830810547	1422.910278320313	-791.7097778320315	249.3465423583985	1488.427856445313	-860.094177246094	261.3317871093751	1509.594604492188	-793.734313964844	326.3951110839844	1524.922241210938	-872.5227050781252	-229.3442077636719	1057.197265625	-1125.528198242188	-253.3425903320313	1081.168823242188	-876.767272949219	-411.3579101562501	1114.11962890625	-1016.032531738281	-421.1765441894532	1082.698974609375	-1042.947265625	-426.334197998047	1084.5068359375	-986.7608032226565	-256.2644958496094	735.8422851562501	-1156.150390625	-225.7685241699219	657.1198120117189	-1141.078002929688	-181.5912017822266	664.5155029296876	-1116.212646484375	-254.4891052246094	609.0461425781251	-1121.400268554688	-252.1996612548829	547.3562011718751	-1108.475463867188	-250.926986694336	548.3335571289064	-988.8328247070315	-244.1472320556641	361.5315551757813	-1021.259765625	-288.5603942871094	320.6583557128907	-1085.719604492188	-254.7026062011719	313.9476013183594	-1053.501708984375	-280.8309936523438	239.6292572021485	-1020.610107421875	-380.2599182128907	119.3615264892578	-1035.127807617188	-343.3462524414063	133.4637603759766	-964.164245605469	-433.5483398437501	100.3978652954102	-980.5269775390627	-234.2725524902344	46.7434310913086	-974.365173339844	-225.9201965332032	45.72476196289063	-1024.33154296875	-270.6697387695313	35.34208297729493	-1071.904296875	-277.7864990234376	807.0457763671877	-803.4730224609377	-236.5226593017579	755.2655639648439	-791.961364746094	-203.9651641845704	758.2492065429689	-795.7954711914065	-258.8512268066407	671.3791503906251	-800.1838989257815	-250.1264343261719	564.7292480468751	-808.9398193359377	-242.2939758300782	553.6292114257814	-922.146423339844	-355.0985412597657	428.7549133300782	-837.499206542969	-467.256561279297	453.6181640625001	-820.654479980469	-438.7544555664064	415.5324707031251	-822.4825439453127	-471.8081054687501	378.2106628417969	-855.1269531250002	-605.9558105468751	373.1850280761719	-845.7182617187502	-577.4003295898439	340.4871826171876	-918.0371704101565	-641.7258300781251	413.4695129394532	-922.2844238281252	-625.2719116210939	199.0381317138672	-894.802429199219	-634.1396484375001	202.1023406982422	-848.6109619140627	-670.7442626953126	244.3580017089844	-816.2766113281252	nan	nan	nan	nan	nan	nan	nan	nan	nan	
